<svg width="47" height="47" viewBox="0 0 47 47" fill="none" xmlns="http://www.w3.org/2000/svg">
<circle cx="23.5" cy="23.5" r="23.5" fill="white"/>
<circle cx="23.5" cy="23.5" r="19.5" fill="#1371FF"/>
<path d="M43.3081 18.9454L45.0758 17.1776L41.5403 13.6421L39.7725 15.4098L43.3081 18.9454ZM32.5418 22.6406C31.5655 23.6169 31.5655 25.1998 32.5418 26.1761C33.5181 27.1525 35.101 27.1525 36.0773 26.1761L32.5418 22.6406ZM39.7725 15.4098L32.5418 22.6406L36.0773 26.1761L43.3081 18.9454L39.7725 15.4098Z" fill="white"/>
<path d="M38.8906 10.8184L40.6584 9.05066L37.1228 5.51513L35.3551 7.28289L38.8906 10.8184ZM24.0918 18.5462C23.1154 19.5225 23.1154 21.1054 24.0918 22.0817C25.0681 23.0581 26.651 23.0581 27.6273 22.0817L24.0918 18.5462ZM35.3551 7.28289L24.0918 18.5462L27.6273 22.0817L38.8906 10.8184L35.3551 7.28289Z" fill="white"/>
<path d="M31.4388 7.41228L33.2889 5.73092L29.9262 2.03063L28.0761 3.71199L31.4388 7.41228ZM20.5672 10.5358C19.5454 11.4644 19.4698 13.0455 20.3984 14.0673C21.327 15.0891 22.9081 15.1647 23.9299 14.2361L20.5672 10.5358ZM28.0761 3.71199L20.5672 10.5358L23.9299 14.2361L31.4388 7.41228L28.0761 3.71199Z" fill="white"/>
</svg>
